HIERARCHY
ROOT SpineBase
{
  OFFSET 0.000000 0.000000 0.000000
  CHANNELS 6 Xposition Yposition Zposition Zrotation Xrotation Yrotation
  JOINT SpineMid
  {
    OFFSET 0.000000 30.119626 0.000000
    CHANNELS 3 Zrotation Xrotation Yrotation
    JOINT SpineShoulder
    {
      OFFSET -0.117207 22.321491 -1.097291
      CHANNELS 3 Zrotation Xrotation Yrotation
      JOINT Neck
      {
        OFFSET -0.057623 7.394150 -0.721481
        CHANNELS 3 Zrotation Xrotation Yrotation
        JOINT Head
        {
          OFFSET -0.279326 11.269851 0.390967
          CHANNELS 3 Zrotation Xrotation Yrotation
          End Site
          {
            OFFSET 0 0 0
          }
        }
      }
      JOINT ShoulderLeft
      {
        OFFSET -17.295740 -3.073687 6.548305
        CHANNELS 3 Zrotation Xrotation Yrotation
        JOINT ElbowLeft
        {
          OFFSET -2.895022 -27.395702 1.712341
          CHANNELS 3 Zrotation Xrotation Yrotation
          JOINT WristLeft
          {
            OFFSET 0.853382 -19.491815 -7.198561
            CHANNELS 3 Zrotation Xrotation Yrotation
            JOINT HandLeft
            {
              OFFSET 1.407232 -4.599481 -2.712284
              CHANNELS 3 Zrotation Xrotation Yrotation
              JOINT HandTipLeft
              {
                OFFSET 1.012787 -5.247305 -1.831789
                CHANNELS 3 Zrotation Xrotation Yrotation
                End Site
                {
                  OFFSET 0 0 0
                }
              }
              JOINT ThumbLeft
              {
                OFFSET -2.868535 -0.469186 -2.771022
                CHANNELS 3 Zrotation Xrotation Yrotation
                End Site
                {
                  OFFSET 0 0 0
                }
              }
            }
          }
        }
      }
      JOINT ShoulderRight
      {
        OFFSET 16.729388 -3.108956 -8.402084
        CHANNELS 3 Zrotation Xrotation Yrotation
        JOINT ElbowRight
        {
          OFFSET 5.648932 -23.832797 -3.156449
          CHANNELS 3 Zrotation Xrotation Yrotation
          JOINT WristRight
          {
            OFFSET -4.986610 -18.811980 -7.391819
            CHANNELS 3 Zrotation Xrotation Yrotation
            JOINT HandRight
            {
              OFFSET -3.023627 -5.820540 -0.354773
              CHANNELS 3 Zrotation Xrotation Yrotation
              JOINT HandTipRight
              {
                OFFSET -1.216135 -6.234205 0.605044
                CHANNELS 3 Zrotation Xrotation Yrotation
                End Site
                {
                  OFFSET 0 0 0
                }
              }
              JOINT ThumbRight
              {
                OFFSET -2.509535 2.115173 -3.576467
                CHANNELS 3 Zrotation Xrotation Yrotation
                End Site
                {
                  OFFSET 0 0 0
                }
              }
            }
          }
        }
      }
    }
  }
  JOINT HipLeft
  {
    OFFSET -5.804078 0.327868 -1.096294
    CHANNELS 3 Zrotation Xrotation Yrotation
    JOINT KneeLeft
    {
      OFFSET 2.425477 -34.711087 6.159862
      CHANNELS 3 Zrotation Xrotation Yrotation
      JOINT AnkleLeft
      {
        OFFSET 3.126873 -31.111498 5.905188
        CHANNELS 3 Zrotation Xrotation Yrotation
        JOINT FootLeft
        {
          OFFSET -1.924887 -8.308547 -4.957182
          CHANNELS 3 Zrotation Xrotation Yrotation
          End Site
          {
            OFFSET 0 0 0
          }
        }
      }
    }
  }
  JOINT HipRight
  {
    OFFSET 5.430782 1.056031 -5.841373
    CHANNELS 3 Zrotation Xrotation Yrotation
    JOINT KneeRight
    {
      OFFSET 8.610699 -32.268290 -0.041108
      CHANNELS 3 Zrotation Xrotation Yrotation
      JOINT AnkleRight
      {
        OFFSET 3.084996 -34.087144 4.131300
        CHANNELS 3 Zrotation Xrotation Yrotation
        JOINT FootRight
        {
          OFFSET -3.805649 -5.277002 -10.383933
          CHANNELS 3 Zrotation Xrotation Yrotation
          End Site
          {
            OFFSET 0 0 0
          }
        }
      }
    }
  }
}
MOTION
Frames: 6
Frame Time: 0.033333
20.683462 76.270663 385.900148 -1.479437 0.204782 28.829663 0.319446 1.186615 -28.895245 -0.084280 0.382237 -0.082468 15.884764 -3.439539 0.306499 0.000000 0.000000 0.000000 1.861013 -1.775231 0.196281 -0.881457 -0.260153 0.312514 -6.624829 -13.133002 -0.958349 4.752852 7.762576 -0.773852 0.000000 0.000000 0.000000 0.000000 0.000000 0.000000 0.808438 0.606919 0.889033 5.512096 -8.214164 -0.521458 5.676034 11.395030 -4.785496 -6.038493 -2.243904 3.108257 0.000000 0.000000 0.000000 0.000000 0.000000 0.000000 2.011193 -0.401091 -28.666381 -0.478107 -0.821705 -0.145550 2.002778 3.269445 -1.983923 0.000000 0.000000 0.000000 1.473269 -1.718263 -28.969547 0.188011 -0.406270 0.170003 10.048900 -27.680864 5.047808 0.000000 0.000000 0.000000
20.681646 76.272851 385.902212 -1.479557 0.240573 28.860644 0.322511 1.193044 -28.925650 -0.075810 0.396435 -0.081202 15.805524 -3.528047 0.322373 0.000000 0.000000 0.000000 2.335909 -1.166612 0.168632 -1.454402 -0.817273 0.376660 -6.519223 -13.117551 -0.975684 4.256365 5.939242 -0.931261 0.000000 0.000000 0.000000 0.000000 0.000000 0.000000 0.818544 0.586171 0.894384 5.411100 -8.297128 -0.484761 5.658405 11.075513 -4.587991 -5.886292 -1.667217 2.886977 0.000000 0.000000 0.000000 0.000000 0.000000 0.000000 1.999719 -0.433323 -28.695065 -0.483188 -0.824741 -0.146712 1.658826 3.605901 -1.848993 0.000000 0.000000 0.000000 1.404514 -1.788416 -29.016187 0.265343 -0.351254 0.190526 9.895792 -27.634785 5.337597 0.000000 0.000000 0.000000
20.681073 76.280386 385.899552 -1.472862 0.279961 28.905544 0.322102 1.199887 -28.969845 -0.068971 0.411639 -0.079930 15.672038 -3.587032 0.334809 0.000000 0.000000 0.000000 2.359064 -1.164022 0.164597 -1.546157 -0.822116 0.403964 -6.347351 -12.848051 -0.934297 2.534589 4.992863 -0.266076 0.000000 0.000000 0.000000 0.000000 0.000000 0.000000 0.823999 0.550046 0.896932 5.285748 -8.506744 -0.395115 5.430987 11.630582 -4.868262 -5.844960 -3.722613 3.383945 0.000000 0.000000 0.000000 0.000000 0.000000 0.000000 1.986156 -0.466237 -28.736528 -0.493510 -0.830225 -0.149022 1.222038 3.638824 -1.585043 0.000000 0.000000 0.000000 1.286815 -1.879065 -29.087843 0.360512 -0.299422 0.216021 9.681139 -27.221120 5.170337 0.000000 0.000000 0.000000
20.689083 76.295080 385.890351 -1.469087 0.318694 28.933821 0.317582 1.199629 -28.997616 -0.061753 0.423486 -0.078834 15.583697 -3.626349 0.344110 0.000000 0.000000 0.000000 2.344550 -1.105653 0.152245 -1.593518 -0.896811 0.434612 -6.465730 -12.205433 -0.592135 3.018604 6.730667 -0.193819 0.000000 0.000000 0.000000 0.000000 0.000000 0.000000 0.825008 0.506535 0.895927 5.233944 -8.426478 -0.407514 5.001585 11.809752 -4.902829 -6.617504 -2.163679 2.876392 0.000000 0.000000 0.000000 0.000000 0.000000 0.000000 1.966461 -0.502176 -28.763092 -0.497168 -0.828910 -0.149600 1.030764 3.859952 -1.516912 0.000000 0.000000 0.000000 1.144701 -1.960972 -29.145214 0.483567 -0.210746 0.244971 9.463883 -26.742304 4.829859 0.000000 0.000000 0.000000
20.702349 76.314077 385.874431 -1.465056 0.354986 28.954457 0.310367 1.198643 -29.017879 -0.056752 0.432007 -0.078132 15.510055 -3.627036 0.349026 0.000000 0.000000 0.000000 2.298208 -1.010084 0.133781 -1.573753 -1.028043 0.457553 -6.246791 -11.291286 -0.327179 3.143859 5.824003 -0.522664 0.000000 0.000000 0.000000 0.000000 0.000000 0.000000 0.801500 0.454894 0.895004 5.220825 -8.359471 -0.414918 4.513756 11.808412 -4.802333 -7.230481 -0.694337 2.383088 0.000000 0.000000 0.000000 0.000000 0.000000 0.000000 1.946836 -0.542269 -28.782084 -0.503239 -0.821285 -0.150157 0.738228 3.831353 -1.328524 0.000000 0.000000 0.000000 0.989550 -2.007195 -29.189666 0.657350 -0.159703 0.269058 9.363607 -26.508141 4.502748 0.000000 0.000000 0.000000
20.711900 76.333040 385.867955 -1.471482 0.384440 28.988465 0.301843 1.191473 -29.051992 -0.051902 0.433779 -0.078028 15.512562 -3.667991 0.356727 0.000000 0.000000 0.000000 2.258272 -0.910489 0.117580 -1.543103 -1.136951 0.476844 -6.415398 -11.507505 -0.322082 1.298251 7.476231 0.816607 0.000000 0.000000 0.000000 0.000000 0.000000 0.000000 0.776126 0.439487 0.900634 5.219196 -8.227802 -0.451687 4.174503 11.962833 -4.852303 -7.387419 0.223831 2.184864 0.000000 0.000000 0.000000 0.000000 0.000000 0.000000 1.948822 -0.559284 -28.813241 -0.506594 -0.837938 -0.152008 0.523036 3.993040 -1.231404 0.000000 0.000000 0.000000 0.855381 -2.056616 -29.247187 0.798686 -0.100018 0.290962 9.305252 -26.432412 4.425139 0.000000 0.000000 0.000000
